# xmcd
#
# Track frame offsets: 
#        150
#        18347
#        35831
#        61043
#        77354
#        94761
#        113591
#        121975
#        134453
#        153146
#        175295
#        194504
#
# Disc length: 2804 seconds
#
# Revision: 2
# Processed by: cddbd v1.5.2PL0 Copyright (c) Steve Scherf et al.
# Submitted via: ExactAudioCopyFreeDBPlugin 1.0
#
DISCID=910af20c
DTITLE=Happoradio - Kaunis Minä
DYEAR=2008
DGENRE=Rock
TTITLE0=Olette Kauniita
TTITLE1=Che Guevara
TTITLE2=Itä-Suomessa Tuulee
TTITLE3=Hirsipuu
TTITLE4=Nukahdistus
TTITLE5=Puhu Äänellä Jonka Kuulen
TTITLE6=Uhrille (Välisoitto)
TTITLE7=Kostaja
TTITLE8=Monta Miestä
TTITLE9=Ruumiinavauspöytäkirja
TTITLE10=Kallioniemi
TTITLE11=Unelmia Ja Toimistohommia
EXTD=
EXTT0=
EXTT1=
EXTT2=
EXTT3=
EXTT4=
EXTT5=
EXTT6=
EXTT7=
EXTT8=
EXTT9=
EXTT10=
EXTT11=
PLAYORDER=
